<?xml version="1.0" encoding="UTF-8"?>
<svg width="595pt" xmlns:xlink="http://www.w3.org/1999/xlink" xmlns="http://www.w3.org/2000/svg" height="842pt" >
 <g transform="translate(33, 21)" style="fill:#ffffff; fill-rule:evenodd; stroke:none; stroke-width:1pt; stroke-linecap:butt; stroke-linejoin:miter; stroke-dasharray:none;" >
  <path d="M0 143.93 C0 143.93 143.71 143.93 143.71 143.93 C143.71 143.93 143.71 0 143.71 0 C143.71 0 0 143.93 0 143.93 Z" />
 </g>
 <g transform="translate(33, 21)" style="fill:none; stroke:#000000; stroke-width:0.72pt; stroke-linecap:butt; stroke-linejoin:miter; stroke-dasharray:none;" >
  <path d="M0 143.93 C0 143.93 143.71 143.93 143.71 143.93 C143.71 143.93 143.71 0 143.71 0 C143.71 0 0 143.93 0 143.93 Z" />
 </g>
 <g transform="translate(140.349, 93.514)" style="fill:#000000; fill-rule:evenodd; stroke:none; stroke-width:0.07199pt; stroke-linecap:butt; stroke-linejoin:miter; stroke-dasharray:none;" >
  <path d="M23.829 0 C23.829 0 29.012 0 29.012 0 C29.012 0 29.012 28.2922 29.012 28.2922 C29.012 30.0922 28.508 32.1792 27.501 34.4832 C26.493 36.7872 24.909 38.7302 22.677 40.3862 C20.446 41.9702 17.638 42.8342 14.326 42.8342 C11.807 42.7622 9.647 42.2582 7.847 41.3942 C6.047 40.4582 4.536 39.2342 3.384 37.7232 C2.304 36.2832 1.44 34.6992 0.936 33.1152 C0.36 31.5312 0.072 29.9482 0 28.4362 C0 25.8443 0.36 23.6126 1.152 21.669 C2.016 19.7251 3.024 18.0694 4.32 16.8455 C5.616 15.5499 7.056 14.542 8.567 13.8941 C10.079 13.2461 11.519 12.886 12.959 12.886 C16.846 12.886 19.798 13.534 21.741 14.7579 C21.741 14.7579 21.741 20.157 21.741 20.157 C19.294 18.4295 16.486 17.5655 13.39 17.5655 C11.087 17.8536 9.071 18.8614 7.487 20.6612 C5.904 22.3887 5.112 24.7645 5.112 27.6442 C5.112 28.2202 5.184 28.6522 5.184 28.9402 C5.328 31.1712 5.975 33.0432 7.056 34.4112 C8.063 35.7792 9.287 36.7872 10.655 37.3632 C12.095 37.8672 13.39 38.1542 14.686 38.1542 C16.63 38.1542 18.286 37.6502 19.654 36.5712 C21.021 35.5632 22.101 34.1952 22.749 32.3952 C23.469 30.6682 23.829 28.6522 23.829 26.3482 C23.829 26.3482 23.829 0 23.829 0 Z" />
 </g>
 <g transform="translate(182.97, 77.74)" style="fill:#000000; fill-rule:evenodd; stroke:none; stroke-width:1pt; stroke-linecap:butt; stroke-linejoin:miter; stroke-dasharray:none;" >
  <path d="M143.72 0 C143.72 0 0 0 0 0 C0 0 0 143.93 0 143.93 C0 143.93 143.72 0 143.72 0 Z" />
 </g>
 <g transform="translate(182.97, 77.74)" style="fill:none; stroke:#000000; stroke-width:0.72pt; stroke-linecap:butt; stroke-linejoin:miter; stroke-dasharray:none;" >
  <path d="M143.72 0 C143.72 0 0 0 0 0 C0 0 0 143.93 0 143.93 C0 143.93 143.72 0 143.72 0 Z" />
 </g>
 <g transform="translate(190.322, 106.324)" style="fill:#ffffff; fill-rule:evenodd; stroke:none; stroke-width:0.07199pt; stroke-linecap:butt; stroke-linejoin:miter; stroke-dasharray:none;" >
  <path d="M5.184 42.8338 C5.184 42.8338 0 42.8338 0 42.8338 C0 42.8338 0 14.5418 0 14.5418 C0 12.7419 0.504 10.6542 1.512 8.3505 C2.52 6.0468 4.104 4.1032 6.335 2.4475 C8.567 0.864 11.375 0 14.686 0 C17.206 0.072 19.365 0.5759 21.165 1.4396 C22.965 2.3754 24.477 3.5993 25.629 5.111 C26.709 6.5507 27.572 8.1347 28.076 9.7185 C28.652 11.3022 28.94 12.8859 29.012 14.3978 C29.012 16.9898 28.652 19.2208 27.86 21.1648 C26.996 23.1088 25.989 24.7648 24.693 25.9878 C23.397 27.2838 21.957 28.2918 20.445 28.9398 C18.934 29.5878 17.494 29.9478 16.054 29.9478 C12.167 29.9478 9.215 29.2998 7.271 28.0758 C7.271 28.0758 7.271 22.6768 7.271 22.6768 C9.719 24.4038 12.526 25.2678 15.622 25.2678 C17.926 24.9798 19.941 23.9728 21.525 22.1728 C23.109 20.4448 23.901 18.0688 23.901 15.1898 C23.901 14.6138 23.829 14.1818 23.829 13.8938 C23.685 11.6621 23.037 9.7905 21.957 8.4226 C20.949 7.0549 19.725 6.0468 18.358 5.4709 C16.918 4.967 15.622 4.6791 14.326 4.6791 C12.383 4.6791 10.727 5.1831 9.359 6.2629 C7.991 7.2707 6.911 8.6386 6.263 10.4382 C5.543 12.166 5.184 14.1818 5.184 16.4858 C5.184 16.4858 5.184 42.8338 5.184 42.8338 Z" />
 </g>
</svg>
