<?xml version="1.0" encoding="UTF-8"?>
<svg width="595pt" xmlns:xlink="http://www.w3.org/1999/xlink" xmlns="http://www.w3.org/2000/svg" height="842pt" >
 <g transform="translate(31, 24)" style="fill:#000000; fill-rule:evenodd; stroke:none; stroke-width:0.07199pt; stroke-linecap:butt; stroke-linejoin:miter; stroke-dasharray:none;" >
  <path d="M31.8916 0 C31.8916 0 38.7307 0 38.7307 0 C38.7307 0 38.7307 37.7226 38.7307 37.7226 C38.7307 40.1704 38.0827 42.906 36.7148 45.9294 C35.4192 48.9531 33.2595 51.6167 30.3078 53.8483 C27.3562 55.9357 23.6128 57.0876 19.1494 57.0876 C15.8379 57.0156 12.9582 56.3679 10.5105 55.1442 C8.06303 53.9204 6.11914 52.2646 4.60742 50.3208 C3.0957 48.3772 2.01587 46.2895 1.2959 44.1298 C0.57593 42.0419 0.14404 39.9543 0 37.9387 C0 34.4831 0.57593 31.4594 1.65576 28.8679 C2.7356 26.2043 4.10352 24.0446 5.8313 22.3886 C7.55913 20.6611 9.43063 19.3652 11.4465 18.5012 C13.4621 17.6374 15.406 17.2055 17.3496 17.1335 C22.5329 17.1335 26.4924 17.9973 29.084 19.653 C29.084 19.653 29.084 26.852 29.084 26.852 C25.7724 24.5485 22.029 23.3967 17.9255 23.3967 C14.83 23.7565 12.1662 25.1245 10.0786 27.5 C7.99093 29.8757 6.91113 32.9714 6.91113 36.8588 C6.91113 37.5786 6.91113 38.1545 6.98313 38.5864 C7.19893 41.6101 8.06303 44.0578 9.43063 45.8574 C10.7986 47.7292 12.4543 49.0251 14.3259 49.7448 C16.1977 50.5368 17.9255 50.8967 19.6533 50.8967 C22.1728 50.8967 24.4045 50.1049 26.2043 48.809 C28.0761 47.4414 29.5158 45.5695 30.4519 43.1938 C31.3877 40.8181 31.8916 38.1545 31.8916 35.1311 C31.8916 35.1311 31.8916 0 31.8916 0 Z" />
 </g>
 <g transform="translate(74.9858, 40.5576)" style="fill:#000000; fill-rule:evenodd; stroke:none; stroke-width:0.07199pt; stroke-linecap:butt; stroke-linejoin:miter; stroke-dasharray:none;" >
  <path d="M32.4675 39.3064 C32.4675 39.3064 32.4675 16.7737 32.4675 16.7737 C32.3955 14.7578 31.7476 12.9582 30.7398 11.3745 C29.6599 9.7905 28.2202 8.4948 26.2764 7.6308 C24.4048 6.695 22.1731 6.1911 19.5813 6.1911 C17.7815 6.1911 15.9099 6.623 13.9661 7.487 C12.0225 8.3508 10.3667 9.7905 8.9988 11.8064 C7.6311 13.822 6.9111 16.4138 6.8391 19.6533 C6.8391 22.5329 7.4151 25.0525 8.6389 27.1401 C9.8628 29.2998 11.4465 30.9555 13.3901 32.0356 C15.334 33.1872 17.4216 33.6914 19.6533 33.6914 C23.3967 33.6914 26.7803 31.8916 29.6599 28.364 C29.6599 28.364 29.6599 36.6428 29.6599 36.6428 C28.0762 37.5068 26.9963 38.1548 26.2764 38.5146 C25.5567 38.8745 24.6206 39.1626 23.4688 39.3781 C22.3169 39.6662 20.8052 39.8821 18.9334 39.8821 C15.7659 39.8821 12.7422 39.1626 9.8628 37.4348 C6.9111 35.779 4.5354 33.4033 2.7356 30.3078 C0.864 27.2842 0 23.6845 0 19.6533 C0 16.0537 0.72 12.7422 2.3037 9.7905 C3.8154 6.7671 6.1192 4.3913 9.1428 2.6635 C12.1665 0.8637 15.8379 0 20.0852 0 C23.1809 0 25.9165 0.4319 28.2922 1.3676 C30.7398 2.3037 32.7556 3.6714 34.4114 5.2553 C36.0671 6.9111 37.291 8.8547 38.0828 10.9424 C38.8748 13.0302 39.3067 15.3337 39.3067 17.6374 C39.3067 17.6374 39.3067 39.3064 39.3067 39.3064 C39.3067 39.3064 32.4675 39.3064 32.4675 39.3064 Z" />
 </g>
 <g transform="translate(120.124, 40.5576)" style="fill:#000000; fill-rule:evenodd; stroke:none; stroke-width:0.07199pt; stroke-linecap:butt; stroke-linejoin:miter; stroke-dasharray:none;" >
  <path d="M9.6472 20.8772 C9.6472 20.8772 28.5082 9.9345 28.5082 9.9345 C27.4282 8.8547 26.3482 7.9189 25.1962 7.271 C23.9732 6.551 22.1732 6.1911 19.6532 6.1911 C17.2062 6.1911 15.0462 6.8391 13.2462 8.1347 C11.3742 9.4306 10.0072 11.1584 8.9992 13.3181 C7.9912 15.5498 7.4871 17.9975 7.4871 20.6611 C7.6311 22.8208 8.2072 24.9804 9.1432 26.9963 C10.1502 29.0119 11.5902 30.6677 13.3902 31.8916 C15.2622 33.1155 17.4932 33.6914 20.0132 33.6914 C23.8292 33.6194 26.7802 32.5395 28.6522 30.5237 C30.5242 28.436 31.8912 25.3405 32.6832 21.237 C32.6832 21.237 39.6662 22.2448 39.6662 22.2448 C39.5952 24.1167 39.1622 26.1323 38.2992 28.2199 C37.4352 30.3078 36.1392 32.3235 34.4112 34.1953 C32.7552 36.0669 30.5962 37.5788 28.0762 38.8025 C25.5562 39.8821 22.6772 40.458 19.4372 40.53 C16.0542 40.53 12.8862 39.6662 9.8632 37.9387 C6.8391 36.2109 4.4634 33.7632 2.6638 30.8117 C0.936 27.7881 0 24.5486 0 21.093 C0 17.5654 0.5759 14.4699 1.7998 11.8064 C2.9517 9.0708 4.5354 6.8391 6.4072 5.1113 C8.3512 3.3835 10.5112 2.0876 12.8142 1.2238 C15.1182 0.4319 17.3492 0 19.5812 0 C23.9732 0 27.6442 0.9358 30.5962 2.8796 C33.5472 4.8232 36.1392 7.8469 38.2992 11.8784 C38.2992 11.8784 12.6702 26.9963 12.6702 26.9963 C12.6702 26.9963 9.6472 20.8772 9.6472 20.8772 Z" />
 </g>
 <g transform="translate(165.981, 40.5576)" style="fill:#000000; fill-rule:evenodd; stroke:none; stroke-width:0.07199pt; stroke-linecap:butt; stroke-linejoin:miter; stroke-dasharray:none;" >
  <path d="M0 39.3064 C0 39.3064 0 12.8142 0 12.8142 C0 10.5825 0.648 8.4948 1.8 6.551 C3.024 4.5354 4.68 2.9516 6.912 1.7998 C9.071 0.5759 11.663 0 14.542 0 C18.934 0.072 22.533 1.7998 25.269 5.0393 C26.277 3.5993 27.789 2.3757 29.804 1.4397 C31.82 0.4319 34.124 0 36.716 0 C39.019 0 41.179 0.5759 43.195 1.7278 C45.282 2.8796 46.938 4.4634 48.09 6.407 C49.314 8.3508 49.962 10.5105 49.962 12.8142 C49.962 12.8142 49.962 39.3064 49.962 39.3064 C49.962 39.3064 43.051 39.3064 43.051 39.3064 C43.051 39.3064 43.051 14.614 43.051 14.614 C43.051 12.5261 42.547 10.5825 41.539 8.8547 C40.459 7.1989 38.659 6.2632 36.211 6.1911 C33.548 6.1911 31.604 7.0549 30.452 8.7107 C29.301 10.3664 28.725 12.3103 28.725 14.614 C28.725 14.614 28.725 39.3064 28.725 39.3064 C28.725 39.3064 21.813 39.3064 21.813 39.3064 C21.813 39.3064 21.813 15.1179 21.813 15.1179 C21.813 12.3823 21.166 10.2226 19.942 8.6386 C18.718 7.0549 16.846 6.1911 14.399 6.1911 C11.447 6.2632 9.431 7.1989 8.351 8.8547 C7.343 10.5825 6.84 12.8142 6.84 15.6218 C6.84 15.6218 6.84 39.3064 6.84 39.3064 C6.84 39.3064 0 39.3064 0 39.3064 Z" />
 </g>
 <g transform="translate(221.918, 40.5576)" style="fill:#000000; fill-rule:evenodd; stroke:none; stroke-width:0.07199pt; stroke-linecap:butt; stroke-linejoin:miter; stroke-dasharray:none;" >
  <path d="M0.144 19.4372 C0.216 15.8379 1.224 12.4543 3.095 9.5027 C5.039 6.551 7.559 4.1753 10.654 2.5195 C13.75 0.8637 16.917 0 20.157 0 C23.541 0 26.78 0.8637 29.876 2.3757 C33.043 3.8874 35.563 6.1191 37.579 9.0708 C39.594 12.0942 40.602 15.6218 40.602 19.6533 C40.602 22.7488 39.81 25.8445 38.37 28.8679 C36.931 31.9636 34.771 34.5551 31.819 36.6428 C28.94 38.7307 25.556 39.7383 21.597 39.8821 C18.357 39.8821 15.406 39.3781 12.742 38.3706 C10.15 37.3628 7.847 35.851 5.903 33.9792 C4.031 32.0356 2.52 29.8757 1.583 27.5002 C0.576 25.0525 0 22.5329 0 19.7971 C0.072 19.7253 0.072 19.6533 0.072 19.5813 C0.144 19.5093 0.144 19.5093 0.144 19.4372 Z M7.487 19.2932 C7.487 23.1806 8.495 26.5642 10.582 29.3718 C12.67 32.2514 15.981 33.6914 20.661 33.6914 C23.037 33.6914 25.124 33.2593 26.996 32.2514 C28.868 31.3156 30.38 29.7319 31.459 27.5002 C32.539 25.3405 33.115 22.4609 33.115 19.0053 C32.899 15.1179 31.675 12.0222 29.3 9.7187 C26.924 7.415 23.972 6.1911 20.301 6.1911 C17.493 6.2632 15.118 6.9829 13.174 8.2788 C11.302 9.5747 9.862 11.2304 8.927 13.174 C8.063 15.1899 7.559 17.2055 7.487 19.2932 Z" />
 </g>
 <g transform="translate(268.351, 40.5576)" style="fill:#000000; fill-rule:evenodd; stroke:none; stroke-width:0.07199pt; stroke-linecap:butt; stroke-linejoin:miter; stroke-dasharray:none;" >
  <path d="M0 39.3064 C0 39.3064 0 15.9096 0 15.9096 C0 13.102 0.72 10.4384 2.088 8.0627 C3.528 5.6152 5.472 3.6714 7.991 2.2317 C10.511 0.8637 13.246 0.072 16.198 0 C18.358 0 20.734 0.5759 23.253 1.6557 C25.773 2.7356 27.932 4.5354 29.732 7.0549 C31.532 9.5747 32.468 12.7422 32.468 16.5576 C32.468 16.5576 32.468 39.3064 32.468 39.3064 C32.468 39.3064 25.557 39.3064 25.557 39.3064 C25.557 39.3064 25.557 16.4138 25.557 16.4138 C25.557 13.678 24.693 11.3025 22.965 9.3586 C21.165 7.343 18.934 6.3352 16.198 6.1911 C13.607 6.1911 11.375 7.1269 9.575 8.9988 C7.775 10.8703 6.839 13.102 6.839 15.6938 C6.839 15.6938 6.839 39.3064 6.839 39.3064 C6.839 39.3064 0 39.3064 0 39.3064 Z" />
 </g>
 <g transform="translate(306.938, 41.7814)" style="fill:#000000; fill-rule:evenodd; stroke:none; stroke-width:0.07199pt; stroke-linecap:butt; stroke-linejoin:miter; stroke-dasharray:none;" >
  <path d="M0 31.2437 C0 31.2437 19.365 31.2437 19.365 31.2437 C19.509 31.2437 19.725 31.3157 19.941 31.3875 C21.165 31.3157 22.245 31.0276 23.109 30.5958 C23.973 30.1639 24.477 29.2999 24.549 28.0042 C24.549 27.0682 24.189 26.2044 23.469 25.5564 C22.749 24.9085 21.741 24.2605 20.661 23.8287 C19.581 23.3968 17.709 22.7488 15.118 22.0289 C12.598 21.2371 11.158 20.805 11.014 20.805 C7.271 19.5813 4.535 18.1414 2.736 16.6297 C1.008 15.0459 0.072 12.8863 0 10.0787 C0 6.335 1.296 3.7435 3.815 2.2317 C6.407 0.7918 9.503 0 13.102 0 C13.102 0 29.516 0 29.516 0 C29.516 0 29.516 6.2632 29.516 6.2632 C29.516 6.2632 11.734 6.2632 11.734 6.2632 C10.366 6.2632 9.287 6.5511 8.567 7.199 C7.775 7.775 7.415 8.6387 7.415 9.7186 C7.487 10.5105 7.847 11.2305 8.567 11.8782 C9.287 12.5262 10.294 13.0301 11.374 13.4622 C12.526 13.8941 13.75 14.254 14.974 14.542 C16.27 14.9019 17.565 15.19 18.861 15.5499 C23.253 16.7737 26.492 18.4295 28.436 20.3731 C30.38 22.3169 31.388 24.8365 31.388 27.8602 C30.956 34.6993 26.78 38.0826 19.005 38.0826 C19.005 38.0826 16.63 38.0826 16.63 38.0826 C16.63 38.0826 0 38.0826 0 38.0826 C0 38.0826 0 31.2437 0 31.2437 Z" />
 </g>
 <g transform="translate(365.322, 40.5576)" style="fill:#000000; fill-rule:evenodd; stroke:none; stroke-width:0.07199pt; stroke-linecap:butt; stroke-linejoin:miter; stroke-dasharray:none;" >
  <path d="M0 56.1518 C0 56.1518 0 19.9411 0 19.9411 C0.144 16.4138 0.792 13.3901 2.016 10.8703 C3.168 8.2788 4.751 6.1911 6.623 4.6074 C8.495 3.0234 10.51 1.7998 12.67 1.0798 C14.83 0.3598 17.062 0 19.293 0 C23.757 0 27.572 1.0078 30.596 3.0954 C33.619 5.1833 35.851 7.7749 37.219 10.7986 C38.658 13.894 39.378 16.8457 39.378 19.6533 C39.378 21.7409 39.09 23.9006 38.514 26.0603 C37.867 28.292 36.931 30.4516 35.563 32.3955 C34.123 34.4111 32.251 36.1389 29.876 37.5068 C27.428 38.8745 24.476 39.5942 21.093 39.8821 C19.077 39.8821 17.205 39.7383 15.55 39.3781 C13.894 39.1626 11.95 38.3706 9.647 37.2187 C9.647 37.2187 9.647 30.0197 9.647 30.0197 C9.934 30.0918 10.798 30.5237 12.31 31.2436 C13.75 31.8916 14.758 32.3955 15.478 32.6833 C16.198 32.9714 16.918 33.1155 17.638 33.2593 C18.357 33.4033 19.221 33.4033 20.229 33.4033 C22.677 33.4033 24.908 32.7553 26.708 31.6035 C28.58 30.3796 30.02 28.7238 31.028 26.7082 C31.963 24.6926 32.467 22.3889 32.467 19.9411 C32.467 17.2776 31.891 14.9738 30.596 12.9582 C29.372 11.0144 27.716 9.5027 25.7 8.4228 C23.685 7.343 21.597 6.8391 19.437 6.8391 C17.421 6.8391 15.406 7.415 13.462 8.4948 C11.518 9.5747 9.934 11.2304 8.711 13.4621 C7.487 15.7658 6.839 18.5735 6.839 21.813 C6.839 21.813 6.839 56.1518 6.839 56.1518 C6.839 56.1518 0 56.1518 0 56.1518 Z" />
 </g>
 <g transform="translate(408.66, 40.5576)" style="fill:#000000; fill-rule:evenodd; stroke:none; stroke-width:0.07199pt; stroke-linecap:butt; stroke-linejoin:miter; stroke-dasharray:none;" >
  <path d="M0.144 19.4372 C0.216 15.8379 1.224 12.4543 3.095 9.5027 C5.039 6.551 7.559 4.1753 10.654 2.5195 C13.75 0.8637 16.917 0 20.157 0 C23.54 0 26.78 0.8637 29.876 2.3757 C33.043 3.8874 35.563 6.1191 37.579 9.0708 C39.594 12.0942 40.602 15.6218 40.602 19.6533 C40.602 22.7488 39.81 25.8445 38.371 28.8679 C36.931 31.9636 34.771 34.5551 31.82 36.6428 C28.94 38.7307 25.556 39.7383 21.597 39.8821 C18.357 39.8821 15.406 39.3781 12.742 38.3706 C10.15 37.3628 7.847 35.851 5.903 33.9792 C4.031 32.0356 2.52 29.8757 1.584 27.5002 C0.576 25.0525 0 22.5329 0 19.7971 C0.072 19.7253 0.072 19.6533 0.072 19.5813 C0.144 19.5093 0.144 19.5093 0.144 19.4372 Z M7.487 19.2932 C7.487 23.1806 8.495 26.5642 10.582 29.3718 C12.67 32.2514 15.982 33.6914 20.661 33.6914 C23.037 33.6914 25.124 33.2593 26.996 32.2514 C28.868 31.3156 30.38 29.7319 31.459 27.5002 C32.539 25.3405 33.115 22.4609 33.115 19.0053 C32.899 15.1179 31.675 12.0222 29.3 9.7187 C26.924 7.415 23.973 6.1911 20.301 6.1911 C17.493 6.2632 15.118 6.9829 13.174 8.2788 C11.302 9.5747 9.863 11.2304 8.927 13.174 C8.063 15.1899 7.559 17.2055 7.487 19.2932 Z" />
 </g>
 <g transform="translate(458.189, 28.6792)" style="fill:#000000; fill-rule:evenodd; stroke:none; stroke-width:0.07199pt; stroke-linecap:butt; stroke-linejoin:miter; stroke-dasharray:none;" >
  <path d="M0 3.88746 C0.072 2.80762 0.504 1.87183 1.296 1.07984 C2.088 0.36011 3.023 0 4.103 0 C5.183 0 6.191 0.36011 6.983 1.15186 C7.775 1.94385 8.207 2.87964 8.207 4.0315 C8.207 5.32735 7.847 6.26315 7.055 6.98315 C6.335 7.70285 5.399 8.13505 4.319 8.13505 C3.168 8.13505 2.16 7.70285 1.296 6.98315 C0.432 6.19115 0 5.18335 0 3.88746 Z M0.648 51.1849 C0.648 51.1849 0.648 13.1022 0.648 13.1022 C0.648 13.1022 7.487 13.1022 7.487 13.1022 C7.487 13.1022 7.487 51.1849 7.487 51.1849 C7.487 51.1849 0.648 51.1849 0.648 51.1849 Z" />
 </g>
 <g transform="translate(477.266, 40.5576)" style="fill:#000000; fill-rule:evenodd; stroke:none; stroke-width:0.07199pt; stroke-linecap:butt; stroke-linejoin:miter; stroke-dasharray:none;" >
  <path d="M0 39.3064 C0 39.3064 0 15.9096 0 15.9096 C0 13.102 0.72 10.4384 2.088 8.0627 C3.528 5.6152 5.472 3.6714 7.991 2.2317 C10.511 0.8637 13.246 0.072 16.198 0 C18.358 0 20.734 0.5759 23.253 1.6557 C25.773 2.7356 27.933 4.5354 29.732 7.0549 C31.532 9.5747 32.468 12.7422 32.468 16.5576 C32.468 16.5576 32.468 39.3064 32.468 39.3064 C32.468 39.3064 25.557 39.3064 25.557 39.3064 C25.557 39.3064 25.557 16.4138 25.557 16.4138 C25.557 13.678 24.693 11.3025 22.965 9.3586 C21.165 7.343 18.934 6.3352 16.198 6.1911 C13.606 6.1911 11.375 7.1269 9.575 8.9988 C7.775 10.8703 6.839 13.102 6.839 15.6938 C6.839 15.6938 6.839 39.3064 6.839 39.3064 C6.839 39.3064 0 39.3064 0 39.3064 Z" />
 </g>
 <g transform="translate(518.517, 31.7749)" style="fill:#000000; fill-rule:evenodd; stroke:none; stroke-width:0.07199pt; stroke-linecap:butt; stroke-linejoin:miter; stroke-dasharray:none;" >
  <path d="M0 36.1389 C0 36.1389 0 0 0 0 C0 0 6.838 0 6.838 0 C6.838 0 6.838 10.0065 6.838 10.0065 C6.838 10.0065 20.733 10.0065 20.733 10.0065 C20.733 10.0065 20.733 16.2697 20.733 16.2697 C20.733 16.2697 6.838 16.2697 6.838 16.2697 C6.838 16.2697 6.838 37.8667 6.838 37.8667 C6.838 38.9465 7.271 39.8823 8.134 40.6743 C8.998 41.466 10.294 41.8982 11.95 41.8982 C11.95 41.8982 20.733 41.8982 20.733 41.8982 C20.733 41.8982 20.733 48.0891 20.733 48.0891 C20.733 48.0891 11.878 48.0891 11.878 48.0891 C9.07 48.0891 6.838 47.5852 5.039 46.5053 C3.239 45.4255 1.943 43.9138 1.151 42.114 C0.432 40.3142 0 38.2985 0 36.1389 Z" />
 </g>
</svg>
